<svg width="356" height="200" viewBox="0 0 356 200" fill="none" xmlns="http://www.w3.org/2000/svg">
<g clip-path="url(#clip0_307_298)">
<rect width="355.556" height="200" fill="#2196F3"/>
<g filter="url(#filter0_d_307_298)">
<path d="M147.045 89.5634L111.224 140.347C110.289 141.672 111.237 143.5 112.858 143.5H243.872C245.332 143.5 246.3 141.986 245.687 140.661L208.567 60.3878C207.897 58.9387 205.882 58.8202 205.047 60.1807L173.411 111.702C172.709 112.846 171.101 112.986 170.211 111.982L150.175 89.3892C149.32 88.4243 147.788 88.5095 147.045 89.5634Z" fill="#52D858"/>
<path d="M147.045 89.5634L111.224 140.347C110.289 141.672 111.237 143.5 112.858 143.5H243.872C245.332 143.5 246.3 141.986 245.687 140.661L208.567 60.3878C207.897 58.9387 205.882 58.8202 205.047 60.1807L173.411 111.702C172.709 112.846 171.101 112.986 170.211 111.982L150.175 89.3892C149.32 88.4243 147.788 88.5095 147.045 89.5634Z" stroke="white" stroke-width="2"/>
</g>
</g>
<defs>
<filter id="filter0_d_307_298" x="9.85291" y="-31.7729" width="337.022" height="286.273" filterUnits="userSpaceOnUse" color-interpolation-filters="sRGB">
<feFlood flood-opacity="0" result="BackgroundImageFix"/>
<feColorMatrix in="SourceAlpha" type="matrix" values="0 0 0 0 0 0 0 0 0 0 0 0 0 0 0 0 0 0 127 0" result="hardAlpha"/>
<feOffset dy="10"/>
<feGaussianBlur stdDeviation="50"/>
<feComposite in2="hardAlpha" operator="out"/>
<feColorMatrix type="matrix" values="0 0 0 0 0 0 0 0 0 0 0 0 0 0 0 0 0 0 0.1 0"/>
<feBlend mode="normal" in2="BackgroundImageFix" result="effect1_dropShadow_307_298"/>
<feBlend mode="normal" in="SourceGraphic" in2="effect1_dropShadow_307_298" result="shape"/>
</filter>
<clipPath id="clip0_307_298">
<rect width="355.556" height="200" fill="white"/>
</clipPath>
</defs>
</svg>
